<svg xmlns="http://www.w3.org/2000/svg" xmlns:xlink="http://www.w3.org/1999/xlink" width="500" zoomAndPan="magnify" viewBox="0 0 375 374.999991" height="500" preserveAspectRatio="xMidYMid meet" version="1.0"><defs><g/><clipPath id="0968621e3b"><path d="M 0.441406 72 L 204 72 L 204 375 L 0.441406 375 Z M 0.441406 72 " clip-rule="nonzero"/></clipPath><clipPath id="c5f1ccc8cc"><rect x="0" width="204" y="0" height="303"/></clipPath><clipPath id="eddffcf72a"><path d="M 60 0 L 264.679688 0 L 264.679688 303 L 60 303 Z M 60 0 " clip-rule="nonzero"/></clipPath><clipPath id="b9830ff53d"><rect x="0" width="205" y="0" height="303"/></clipPath><clipPath id="9c6fed8a7a"><rect x="0" width="265" y="0" height="375"/></clipPath></defs><g transform="matrix(1, 0, 0, 1, 55, 0)"><g clip-path="url(#9c6fed8a7a)"><g clip-path="url(#0968621e3b)"><g transform="matrix(1, 0, 0, 1, 0, 72)"><g clip-path="url(#c5f1ccc8cc)"><g fill="#0046ff" fill-opacity="1"><g transform="translate(0.495932, 267.317295)"><g><path d="M 143.140625 -216.0625 L 183.390625 -216.0625 L 183.390625 -74.8125 C 183.390625 -63.832031 181.316406 -53.523438 177.171875 -43.890625 C 173.023438 -34.253906 167.304688 -25.789062 160.015625 -18.5 C 152.722656 -11.207031 144.304688 -5.488281 134.765625 -1.34375 C 125.222656 2.789062 114.960938 4.859375 103.984375 4.859375 L 98.578125 4.859375 C 87.597656 4.859375 77.289062 2.789062 67.65625 -1.34375 C 58.019531 -5.488281 49.554688 -11.207031 42.265625 -18.5 C 34.972656 -25.789062 29.253906 -34.253906 25.109375 -43.890625 C 20.972656 -53.523438 18.90625 -63.832031 18.90625 -74.8125 L 18.90625 -216.0625 L 59.421875 -216.0625 L 59.421875 -74.8125 C 59.421875 -67.613281 61.175781 -60.992188 64.6875 -54.953125 C 68.195312 -48.921875 72.921875 -44.148438 78.859375 -40.640625 C 84.804688 -37.128906 91.378906 -35.375 98.578125 -35.375 L 103.984375 -35.375 C 111.179688 -35.375 117.75 -37.128906 123.6875 -40.640625 C 129.632812 -44.148438 134.363281 -48.921875 137.875 -54.953125 C 141.382812 -60.992188 143.140625 -67.613281 143.140625 -74.8125 Z M 143.140625 -216.0625 "/></g></g></g></g></g></g><g clip-path="url(#eddffcf72a)"><g transform="matrix(1, 0, 0, 1, 60, 0)"><g clip-path="url(#b9830ff53d)"><g fill="#ff8040" fill-opacity="1"><g transform="translate(204.472796, 35.674522)"><g><path d="M -143.140625 216.0625 L -183.390625 216.0625 L -183.390625 74.8125 C -183.390625 63.832031 -181.316406 53.523438 -177.171875 43.890625 C -173.023438 34.253906 -167.304688 25.789062 -160.015625 18.5 C -152.722656 11.207031 -144.304688 5.488281 -134.765625 1.34375 C -125.222656 -2.789062 -114.960938 -4.859375 -103.984375 -4.859375 L -98.578125 -4.859375 C -87.597656 -4.859375 -77.289062 -2.789062 -67.65625 1.34375 C -58.019531 5.488281 -49.554688 11.207031 -42.265625 18.5 C -34.972656 25.789062 -29.253906 34.253906 -25.109375 43.890625 C -20.972656 53.523438 -18.90625 63.832031 -18.90625 74.8125 L -18.90625 216.0625 L -59.421875 216.0625 L -59.421875 74.8125 C -59.421875 67.613281 -61.175781 60.992188 -64.6875 54.953125 C -68.195312 48.921875 -72.921875 44.148438 -78.859375 40.640625 C -84.804688 37.128906 -91.378906 35.375 -98.578125 35.375 L -103.984375 35.375 C -111.179688 35.375 -117.75 37.128906 -123.6875 40.640625 C -129.632812 44.148438 -134.363281 48.921875 -137.875 54.953125 C -141.382812 60.992188 -143.140625 67.613281 -143.140625 74.8125 Z M -143.140625 216.0625 "/></g></g></g></g></g></g></g></g></svg>