<svg xmlns="http://www.w3.org/2000/svg" xmlns:xlink="http://www.w3.org/1999/xlink" width="500" zoomAndPan="magnify" viewBox="0 0 375 119.999999" height="160" preserveAspectRatio="xMidYMid meet" version="1.0"><defs><g/><clipPath id="f5ef04ab69"><rect x="0" width="68" y="0" height="98"/></clipPath><clipPath id="5d4f409ac7"><rect x="0" width="67" y="0" height="98"/></clipPath><clipPath id="5d3efe1114"><rect x="0" width="273" y="0" height="120"/></clipPath></defs><g transform="matrix(1, 0, 0, 1, 3, 22)"><g clip-path="url(#f5ef04ab69)"><g fill="#0046ff" fill-opacity="1"><g transform="translate(0.73832, 87.386515)"><g><path d="M 46.5625 -70.28125 L 59.65625 -70.28125 L 59.65625 -24.34375 C 59.65625 -20.769531 58.976562 -17.414062 57.625 -14.28125 C 56.28125 -11.144531 54.421875 -8.390625 52.046875 -6.015625 C 49.679688 -3.640625 46.945312 -1.78125 43.84375 -0.4375 C 40.738281 0.90625 37.398438 1.578125 33.828125 1.578125 L 32.0625 1.578125 C 28.488281 1.578125 25.132812 0.90625 22 -0.4375 C 18.875 -1.78125 16.125 -3.640625 13.75 -6.015625 C 11.375 -8.390625 9.515625 -11.144531 8.171875 -14.28125 C 6.828125 -17.414062 6.15625 -20.769531 6.15625 -24.34375 L 6.15625 -70.28125 L 19.328125 -70.28125 L 19.328125 -24.34375 C 19.328125 -22 19.894531 -19.84375 21.03125 -17.875 C 22.175781 -15.914062 23.710938 -14.363281 25.640625 -13.21875 C 27.578125 -12.082031 29.71875 -11.515625 32.0625 -11.515625 L 33.828125 -11.515625 C 36.171875 -11.515625 38.304688 -12.082031 40.234375 -13.21875 C 42.171875 -14.363281 43.707031 -15.914062 44.84375 -17.875 C 45.988281 -19.84375 46.5625 -22 46.5625 -24.34375 Z M 46.5625 -70.28125 "/></g></g></g></g></g><g transform="matrix(1, 0, 0, 1, 23, 0.000000000000001943)"><g clip-path="url(#5d4f409ac7)"><g fill="#ff8040" fill-opacity="1"><g transform="translate(66.616434, 10.607243)"><g><path d="M -46.5625 70.28125 L -59.65625 70.28125 L -59.65625 24.34375 C -59.65625 20.769531 -58.976562 17.414062 -57.625 14.28125 C -56.28125 11.144531 -54.421875 8.390625 -52.046875 6.015625 C -49.679688 3.640625 -46.945312 1.78125 -43.84375 0.4375 C -40.738281 -0.90625 -37.398438 -1.578125 -33.828125 -1.578125 L -32.0625 -1.578125 C -28.488281 -1.578125 -25.132812 -0.90625 -22 0.4375 C -18.875 1.78125 -16.125 3.640625 -13.75 6.015625 C -11.375 8.390625 -9.515625 11.144531 -8.171875 14.28125 C -6.828125 17.414062 -6.15625 20.769531 -6.15625 24.34375 L -6.15625 70.28125 L -19.328125 70.28125 L -19.328125 24.34375 C -19.328125 22 -19.894531 19.84375 -21.03125 17.875 C -22.175781 15.914062 -23.710938 14.363281 -25.640625 13.21875 C -27.578125 12.082031 -29.71875 11.515625 -32.0625 11.515625 L -33.828125 11.515625 C -36.171875 11.515625 -38.304688 12.082031 -40.234375 13.21875 C -42.171875 14.363281 -43.707031 15.914062 -44.84375 17.875 C -45.988281 19.84375 -46.5625 22 -46.5625 24.34375 Z M -46.5625 70.28125 "/></g></g></g></g></g><g transform="matrix(1, 0, 0, 1, 94, 0.000000000000001943)"><g clip-path="url(#5d3efe1114)"><g fill="#0046ff" fill-opacity="1"><g transform="translate(0.626925, 91.022705)"><g><path d="M 6.65625 -26.820312 C 6.65625 -10.285156 16.234375 1.210938 36.800781 1.210938 C 57.167969 1.210938 66.746094 -10.183594 66.746094 -26.921875 L 66.746094 -67.25 L 52.226562 -67.25 L 52.226562 -27.324219 C 52.226562 -17.945312 47.085938 -11.492188 36.800781 -11.492188 C 26.316406 -11.492188 21.171875 -17.945312 21.171875 -27.324219 L 21.171875 -67.25 L 6.65625 -67.25 Z M 6.65625 -26.820312 "/></g></g></g><g fill="#0046ff" fill-opacity="1"><g transform="translate(68.985453, 91.022705)"><g><path d="M 52.023438 0 L 52.023438 -34.382812 C 52.023438 -43.859375 46.882812 -49.90625 36.195312 -49.90625 C 28.230469 -49.90625 22.28125 -46.078125 19.15625 -42.347656 L 19.15625 -48.699219 L 6.351562 -48.699219 L 6.351562 0 L 19.15625 0 L 19.15625 -32.769531 C 21.273438 -35.691406 25.207031 -38.515625 30.246094 -38.515625 C 35.691406 -38.515625 39.21875 -36.195312 39.21875 -29.441406 L 39.21875 0 Z M 52.023438 0 "/></g></g></g><g fill="#0046ff" fill-opacity="1"><g transform="translate(122.321214, 91.022705)"><g><path d="M 31.960938 -37.507812 L 31.960938 -48.699219 L 22.082031 -48.699219 L 22.082031 -51.117188 C 22.082031 -55.753906 24.5 -58.175781 28.128906 -58.175781 C 29.640625 -58.175781 31.15625 -57.871094 32.261719 -57.167969 L 34.886719 -66.242188 C 32.566406 -67.449219 29.238281 -68.257812 25.609375 -68.257812 C 16.03125 -68.257812 9.175781 -61.90625 9.175781 -51.320312 L 9.175781 -48.699219 L 1.109375 -48.699219 L 1.109375 -37.507812 L 9.175781 -37.507812 L 9.175781 0 L 22.082031 0 L 22.082031 -37.507812 Z M 31.960938 -37.507812 "/></g></g></g><g fill="#0046ff" fill-opacity="1"><g transform="translate(150.249355, 91.022705)"><g><path d="M 48.394531 0 L 48.394531 -31.457031 C 48.394531 -45.472656 38.210938 -49.90625 27.121094 -49.90625 C 19.460938 -49.90625 11.796875 -47.488281 5.847656 -42.246094 L 10.6875 -33.675781 C 14.820312 -37.507812 19.660156 -39.421875 24.902344 -39.421875 C 31.355469 -39.421875 35.589844 -36.195312 35.589844 -31.253906 L 35.589844 -24.5 C 32.363281 -28.433594 26.617188 -30.449219 20.164062 -30.449219 C 12.402344 -30.449219 3.226562 -26.316406 3.226562 -14.921875 C 3.226562 -4.03125 12.402344 1.210938 20.164062 1.210938 C 26.515625 1.210938 32.261719 -1.109375 35.589844 -5.042969 L 35.589844 0 Z M 35.589844 -11.695312 C 33.472656 -8.871094 29.441406 -7.460938 25.308594 -7.460938 C 20.265625 -7.460938 16.132812 -10.082031 16.132812 -14.621094 C 16.132812 -19.257812 20.265625 -21.980469 25.308594 -21.980469 C 29.441406 -21.980469 33.472656 -20.566406 35.589844 -17.746094 Z M 35.589844 -11.695312 "/></g></g></g><g fill="#0046ff" fill-opacity="1"><g transform="translate(199.955462, 91.022705)"><g><path d="M 48.394531 0 L 48.394531 -31.457031 C 48.394531 -45.472656 38.210938 -49.90625 27.121094 -49.90625 C 19.460938 -49.90625 11.796875 -47.488281 5.847656 -42.246094 L 10.6875 -33.675781 C 14.820312 -37.507812 19.660156 -39.421875 24.902344 -39.421875 C 31.355469 -39.421875 35.589844 -36.195312 35.589844 -31.253906 L 35.589844 -24.5 C 32.363281 -28.433594 26.617188 -30.449219 20.164062 -30.449219 C 12.402344 -30.449219 3.226562 -26.316406 3.226562 -14.921875 C 3.226562 -4.03125 12.402344 1.210938 20.164062 1.210938 C 26.515625 1.210938 32.261719 -1.109375 35.589844 -5.042969 L 35.589844 0 Z M 35.589844 -11.695312 C 33.472656 -8.871094 29.441406 -7.460938 25.308594 -7.460938 C 20.265625 -7.460938 16.132812 -10.082031 16.132812 -14.621094 C 16.132812 -19.257812 20.265625 -21.980469 25.308594 -21.980469 C 29.441406 -21.980469 33.472656 -20.566406 35.589844 -17.746094 Z M 35.589844 -11.695312 "/></g></g></g><g fill="#ff8040" fill-opacity="1"><g transform="translate(249.663991, 91.022705)"><g><path d="M 4.738281 -7.058594 C 4.738281 -2.621094 8.46875 1.109375 12.90625 1.109375 C 17.339844 1.109375 21.070312 -2.621094 21.070312 -7.058594 C 21.070312 -11.492188 17.339844 -15.222656 12.90625 -15.222656 C 8.46875 -15.222656 4.738281 -11.492188 4.738281 -7.058594 Z M 4.738281 -7.058594 "/></g></g></g></g></g></svg>